<?xml version="1.0" encoding="UTF-8"?>
<svg xmlns="http://www.w3.org/2000/svg" viewBox="0 0 300 240">
    <g stroke="#ffffff" stroke-width="34" stroke-linecap="round" stroke-linejoin="round" fill="none">
        <path d="M 70 50 L 90 50" />
        <path d="M 110 175 L 120 175" />
        <path d="M 170 50 Q 200 80 230 45" />
    </g>

    <g stroke="#ffffff" stroke-width="14" stroke-linecap="round" stroke-linejoin="round" fill="none">
        <path d="M 100 140 L 60 180" />
        <line x1="100" y1="140" x2="75" y2="40" />        
        <line x1="210" y1="120" x2="200" y2="60" />
        <line x1="210" y1="120" x2="230" y2="180" />
        <circle cx="60" cy="180" r="40" />
        <circle cx="230" cy="180" r="40" />
        <path d="M 90 150 Q 150 123 210 123" />
    </g>

    <g stroke-linecap="round" stroke-linejoin="round" fill="none">
        <circle cx="60" cy="180" r="36" stroke="#111" stroke-width="6" />
        <circle cx="60" cy="180" r="31" stroke="#ccc" stroke-width="2" />
        <circle cx="230" cy="180" r="36" stroke="#111" stroke-width="6" />
        <circle cx="230" cy="180" r="31" stroke="#ccc" stroke-width="2" />
        <g stroke="#777" stroke-width="1">
            <line x1="60" y1="150" x2="60" y2="210" />
            <line x1="30" y1="180" x2="90" y2="180" />
            <line x1="38" y1="158" x2="82" y2="202" />
            <line x1="38" y1="202" x2="82" y2="158" />
            <line x1="230" y1="150" x2="230" y2="210" />
            <line x1="200" y1="180" x2="260" y2="180" />
            <line x1="208" y1="158" x2="252" y2="202" />
            <line x1="208" y1="202" x2="252" y2="158" />
        </g>
        <path d="M 100 145 Q 160 122 208 123" stroke="#4a4a4a" stroke-width="9" />
        <path d="M 100 145 L 60 180" stroke="#222" stroke-width="4" />
        <path d="M 60 180 L 120 180" stroke="#222" stroke-width="4" />
        <line x1="210" y1="125" x2="230" y2="180" stroke="#222" stroke-width="5" />
        <line x1="210" y1="125" x2="200" y2="60" stroke="#4a4a4a" stroke-width="6" />
        <path d="M 170 50 Q 200 80 230 45" stroke="#bbb" stroke-width="4" />
        <line x1="165" y1="52" x2="180" y2="45" stroke="#111" stroke-width="6" />
        <line x1="220" y1="48" x2="235" y2="42" stroke="#111" stroke-width="6" />
        <line x1="100" y1="145" x2="75" y2="45" stroke="#ddd" stroke-width="5" />
        <path d="M 60 45 Q 75 40 95 45 L 85 52 Z" fill="#222" stroke="none" />
        <circle cx="120" cy="175" r="14" stroke="#222" stroke-width="3" />
        <line x1="120" y1="175" x2="135" y2="175" stroke="#111" stroke-width="4" />
        <rect x="132" y="172" width="6" height="6" fill="#f39c12" stroke="none" />
        <circle cx="120" cy="175" r="3" fill="#888" stroke="none" />
    </g>
</svg>